<svg width="200" height="112" viewBox="0 0 200 112" fill="none" xmlns="http://www.w3.org/2000/svg">
<g clip-path="url(#clip0_2_2)">
<path d="M0.694017 111.451V82.2145C0.694017 81.3518 0.644737 80.4357 0.542072 79.4621C0.443514 78.4926 0.258716 77.4656 0 76.3851H4.94846C5.35091 76.6152 5.68765 76.952 5.9669 77.3916C6.24615 77.8312 6.47612 78.2831 6.66092 78.7432L6.80054 79.6675L7.49456 78.7432C8.72654 77.6011 9.83122 76.8247 10.8004 76.4057C11.7695 75.9867 12.7182 75.7812 13.6463 75.7812C15.8679 75.7812 17.7652 76.3317 19.3462 77.4368C20.9273 78.5378 22.1346 80.0495 22.9765 81.9721C23.8183 83.8905 24.2372 86.0719 24.2372 88.508C24.2372 90.143 23.9579 91.6917 23.4036 93.1583C22.8492 94.6249 22.0935 95.923 21.1367 97.0569C20.1799 98.1907 19.0957 99.0862 17.8761 99.7394C16.6564 100.397 15.3875 100.721 14.061 100.721C13.2767 100.721 12.5005 100.668 11.7367 100.561C10.9729 100.454 9.99138 100.228 8.78814 99.8914C9.20291 98.8274 9.69159 97.9565 10.246 97.2787C10.8004 96.6009 11.4574 96.2394 12.2131 96.1901C13.4943 96.112 14.5086 95.7382 15.2643 95.0686C16.0199 94.3989 16.5619 93.4993 16.8946 92.3737C17.2272 91.2481 17.3915 89.9623 17.3915 88.5121C17.3915 87.062 17.1944 85.7556 16.8001 84.5437C16.4059 83.3319 15.8433 82.3665 15.1123 81.6393C14.3813 80.9163 13.5066 80.5507 12.4882 80.5507C11.593 80.5507 10.7141 80.8136 9.85175 81.3353C8.98936 81.8612 8.0777 82.6787 7.12496 83.7878V111.451H0.694017Z" fill="#942B6A"/>
<path d="M26.7751 100.306V82.2186C26.7751 81.3559 26.7217 80.4398 26.6149 79.4662C26.5081 78.4967 26.3151 77.4697 26.0359 76.3892H30.9392C31.202 76.5905 31.4771 77.0137 31.7728 77.6627C32.0644 78.3118 32.2656 79.0266 32.3724 79.8154L32.4668 80.9245L32.9309 79.8154C33.5633 78.5829 34.3764 77.6258 35.3702 76.9479C36.364 76.2701 37.3537 75.9291 38.3393 75.9291C38.8321 75.9291 39.3167 75.9743 39.7971 76.0688C40.2735 76.1633 40.7909 76.2989 41.3453 76.4837L40.6061 81.7092C39.9901 81.5243 39.4727 81.4011 39.0579 81.3394C38.6432 81.2778 38.2489 81.2491 37.8793 81.2491C36.8322 81.2491 35.9287 81.59 35.1731 82.2761C34.4175 82.9621 33.8384 83.8988 33.4401 85.086C33.0377 86.2732 32.8405 87.6289 32.8405 89.1571V100.306H26.7833H26.7751Z" fill="#942B6A"/>
<path d="M48.5072 100.906C47.0289 100.906 45.7517 100.577 44.6799 99.9243C43.6081 99.267 42.7826 98.4084 42.2077 97.3444C41.6328 96.2804 41.3412 95.1384 41.3412 93.9224C41.3412 92.6407 41.719 91.4329 42.4746 90.2909C43.2303 89.1488 44.5279 88.1834 46.3718 87.3865C48.2157 86.5936 50.7618 86.0719 54.0142 85.8254C53.9074 86.5484 53.7309 87.218 53.4845 87.826C53.2381 88.434 52.9013 88.9393 52.4783 89.3419C52.0554 89.7445 51.5174 90.0033 50.8727 90.1265C50.1006 90.2498 49.4682 90.4675 48.9754 90.7756C48.4826 91.0837 48.1212 91.4576 47.8872 91.8971C47.6572 92.3367 47.5422 92.8091 47.5422 93.3185C47.5422 94.1196 47.8256 94.7892 48.3964 95.3314C48.9672 95.8696 49.653 96.1407 50.4538 96.1407C51.3326 96.1407 52.2237 95.8367 53.1231 95.2287C54.0265 94.6208 54.8766 93.8443 55.6774 92.9036V85.9199C55.6774 84.3178 55.2339 83.036 54.3468 82.0789C53.4598 81.1217 52.2073 80.6452 50.5893 80.6452C49.8337 80.6452 49.0165 80.7232 48.1377 80.8752C47.2588 81.0313 46.2733 81.3066 45.1768 81.7091L43.604 77.6381C44.9756 77.0054 46.3882 76.5535 47.8461 76.2865C49.3039 76.0154 50.5688 75.8798 51.6488 75.8798C54.9341 75.8798 57.4638 76.7425 59.246 78.472C61.0283 80.1974 61.9153 82.6828 61.9153 85.9199V94.477C61.9153 95.3232 61.9687 96.2352 62.0755 97.2047C62.1823 98.1783 62.3753 99.2095 62.6545 100.302H57.8908C57.4761 100.072 57.1311 99.7435 56.8601 99.3204C56.5891 98.8972 56.3632 98.4536 56.1784 97.9894L56.0388 97.065L55.4844 97.8538C54.0963 99.1191 52.8849 99.9448 51.8418 100.327C50.8028 100.713 49.6858 100.906 48.499 100.906H48.5072Z" fill="#942B6A"/>
<path d="M74.4487 111.87C73.2454 111.87 71.8697 111.743 70.3215 111.488C68.7733 111.234 67.0978 110.712 65.2909 109.927L66.9089 105.626C68.4653 106.242 69.8082 106.666 70.9334 106.9C72.0586 107.13 73.1058 107.245 74.0791 107.245C75.2207 107.245 76.272 107.007 77.2371 106.526C78.2021 106.049 78.97 105.33 79.5491 104.373C80.1281 103.416 80.4156 102.229 80.4156 100.812V80.9656C79.816 80.8259 79.2534 80.7315 78.7278 80.678C78.2021 80.6246 77.7791 80.5959 77.4547 80.5959C75.3603 80.5959 73.7629 81.3929 72.6705 82.9909C71.574 84.5848 71.0279 86.6553 71.0279 89.2023C71.0279 90.1882 71.1387 91.207 71.3646 92.2545C71.5864 93.3021 71.9888 94.1812 72.5678 94.8919C73.1469 95.6026 73.96 95.9395 75.0072 95.9107C75.9312 95.8778 76.6621 96.1859 77.1919 96.8227C77.7257 97.4636 78.2432 98.2235 78.7524 99.1027C77.9064 99.5669 77.0194 99.9489 76.0913 100.261C75.1673 100.569 74.309 100.725 73.5247 100.725C72.0463 100.725 70.724 100.388 69.5577 99.7189C68.3955 99.0493 67.4099 98.1537 66.6092 97.0363C65.8084 95.9189 65.1965 94.6783 64.7694 93.3103C64.3464 91.9464 64.1329 90.5785 64.1329 89.2064C64.1329 86.7539 64.6503 84.515 65.6811 82.4856C66.7118 80.4562 68.2025 78.8418 70.1449 77.6381C72.0874 76.4344 74.4281 75.8347 77.1755 75.8347C78.0543 75.8347 78.9331 75.8675 79.8119 75.9374C80.6907 76.0072 81.6763 76.1428 82.7728 76.3441C83.8651 76.5453 85.1792 76.837 86.7028 77.2232V100.306C86.7028 103.129 86.1525 105.384 85.0478 107.072C83.9473 108.761 82.4648 109.981 80.6086 110.737C78.7524 111.493 76.6991 111.87 74.4487 111.87Z" fill="#942B6A"/>
<path d="M90.7273 100.306V82.2186C90.7273 81.3559 90.678 80.4398 90.5753 79.4662C90.4768 78.4967 90.292 77.4696 90.0333 76.3892H95.3965C96.1357 77.2232 96.6203 78.0489 96.8543 78.8623C97.0843 79.6798 97.1993 80.5507 97.1993 81.475V100.302H90.7232L90.7273 100.306ZM105.478 100.306V83.3277C105.478 82.5554 105.334 81.9228 105.051 81.4298C104.768 80.9368 104.23 80.6904 103.445 80.6904C103.166 80.6904 102.891 80.7232 102.612 80.7848C102.333 80.8465 102.012 80.8917 101.643 80.9245C100.903 80.9697 100.251 80.6575 99.6879 79.9879C99.1253 79.3183 98.6366 78.5665 98.2177 77.7326C99.8809 77.0547 101.277 76.5618 102.402 76.2537C103.528 75.9456 104.628 75.7895 105.708 75.7895C106.788 75.7895 107.778 76.0606 108.727 76.5987C109.675 77.1369 110.447 77.9585 111.051 79.0636C111.65 80.1645 111.954 81.5572 111.954 83.2373V100.306H105.482H105.478ZM120.229 100.306V83.3277C120.229 82.5554 120.061 81.9228 119.72 81.4298C119.379 80.9368 118.78 80.6904 117.917 80.6904C117.638 80.6904 117.338 80.7273 117.014 80.8054C116.689 80.8834 116.328 80.9368 115.925 80.9656C115.186 81.0108 114.517 80.6986 113.926 80.029C113.33 79.3593 112.829 78.6076 112.41 77.7736C114.106 77.0794 115.539 76.5741 116.71 76.2578C117.88 75.9414 119.005 75.7853 120.085 75.7853C121.165 75.7853 122.184 76.0565 123.194 76.5946C124.204 77.1328 125.034 77.9544 125.679 79.0595C126.327 80.1604 126.648 81.553 126.648 83.2332V100.302H120.221L120.229 100.306Z" fill="#942B6A"/>
<path d="M136.972 100.906C135.493 100.906 134.216 100.577 133.144 99.9243C132.073 99.267 131.247 98.4084 130.672 97.3444C130.097 96.2804 129.806 95.1384 129.806 93.9224C129.806 92.6407 130.184 91.4329 130.939 90.2909C131.695 89.1488 132.992 88.1834 134.836 87.3865C136.68 86.5936 139.226 86.0719 142.479 85.8254C142.372 86.5484 142.195 87.218 141.949 87.826C141.703 88.434 141.366 88.9393 140.943 89.3419C140.52 89.7445 139.982 90.0033 139.337 90.1265C138.565 90.2498 137.933 90.4675 137.44 90.7756C136.947 91.0837 136.586 91.4576 136.352 91.8971C136.122 92.3367 136.007 92.8091 136.007 93.3185C136.007 94.1196 136.29 94.7892 136.861 95.3314C137.432 95.8696 138.118 96.1407 138.918 96.1407C139.797 96.1407 140.688 95.8367 141.588 95.2287C142.491 94.6208 143.341 93.8443 144.142 92.9036V85.9199C144.142 84.3178 143.698 83.036 142.811 82.0789C141.924 81.1217 140.672 80.6452 139.054 80.6452C138.298 80.6452 137.481 80.7232 136.602 80.8752C135.723 81.0313 134.738 81.3066 133.641 81.7091L132.069 77.6381C133.44 77.0054 134.853 76.5535 136.311 76.2865C137.768 76.0154 139.033 75.8798 140.113 75.8798C143.399 75.8798 145.928 76.7425 147.711 78.472C149.493 80.1974 150.38 82.6828 150.38 85.9199V94.477C150.38 95.3232 150.433 96.2352 150.54 97.2047C150.647 98.1783 150.84 99.2095 151.119 100.302H146.355C145.941 100.072 145.596 99.7435 145.325 99.3204C145.054 98.8972 144.828 98.4536 144.643 97.9894L144.503 97.065L143.949 97.8538C142.561 99.1191 141.349 99.9448 140.306 100.327C139.267 100.713 138.15 100.906 136.964 100.906H136.972Z" fill="#942B6A"/>
<path d="M164.576 100.906C161.648 100.906 159.406 100.068 157.85 98.3837C156.293 96.7036 155.513 94.288 155.513 91.1454V80.9697H151.673V77.3135L155.513 76.3892V70.6996L161.616 68.7113V91.1454C161.616 92.7187 161.948 93.9429 162.609 94.8221C163.271 95.7012 164.141 96.1407 165.221 96.1407C165.669 96.1407 166.178 96.0956 166.749 96.0011C167.32 95.9107 167.997 95.7217 168.782 95.4465L170.124 99.6572C168.966 100.043 167.948 100.347 167.061 100.569C166.174 100.791 165.344 100.906 164.576 100.906ZM167.812 80.9697C166.917 80.9697 166.162 80.7314 165.546 80.2508C164.93 79.7743 164.433 79.1786 164.055 78.472C163.677 77.7613 163.39 77.0671 163.188 76.3892H169.894V80.9697H167.812Z" fill="#942B6A"/>
<path d="M175.907 73.2425C174.843 73.2425 173.944 72.8768 173.213 72.1456C172.482 71.4144 172.116 70.5147 172.116 69.4507C172.116 68.3867 172.482 67.4337 173.213 66.686C173.944 65.9383 174.843 65.5645 175.907 65.5645C176.97 65.5645 177.87 65.9383 178.6 66.686C179.331 67.4337 179.697 68.3539 179.697 69.4507C179.697 70.5476 179.331 71.4144 178.6 72.1456C177.87 72.8768 176.97 73.2425 175.907 73.2425ZM172.671 100.306V76.3892H179.147V100.306H172.671Z" fill="#942B6A"/>
<path d="M193.754 100.906C191.61 100.906 189.594 100.475 187.709 99.612C185.82 98.7494 184.292 97.3937 183.118 95.541C181.947 93.6923 181.36 91.285 181.36 88.3231C181.36 85.5338 181.947 83.2086 183.118 81.3476C184.288 79.4908 185.82 78.0982 187.709 77.1739C189.598 76.2496 191.614 75.7853 193.754 75.7853C194.587 75.7853 195.495 75.8675 196.481 76.0277C197.466 76.1879 198.423 76.4467 199.347 76.8041L197.774 81.1053C197.035 80.9204 196.304 80.7807 195.589 80.6904C194.871 80.5959 194.259 80.5507 193.75 80.5507C192.641 80.5507 191.668 80.8629 190.838 81.4873C190.009 82.1117 189.36 83.0073 188.896 84.1699C188.432 85.3325 188.202 86.7169 188.202 88.3231C188.202 89.9294 188.432 91.3343 188.896 92.4969C189.36 93.6595 190.005 94.5591 190.838 95.1918C191.672 95.8244 192.641 96.1407 193.75 96.1407C194.399 96.1407 195.093 96.0504 195.832 95.8737C196.571 95.6971 197.433 95.4136 198.423 95.0316L199.996 99.2875C198.793 99.8421 197.659 100.253 196.596 100.512C195.532 100.771 194.583 100.906 193.75 100.906H193.754Z" fill="#942B6A"/>
<path d="M91.5486 17.7961C91.5856 17.8331 96.2999 22.5491 97.187 23.4364L97.3307 23.5802C97.9549 24.2046 98.7885 24.562 99.7166 24.5908C99.7331 24.5908 99.7495 24.5908 99.7782 24.5908C99.7906 24.5908 99.807 24.5908 99.8234 24.5908C100.743 24.5826 101.602 24.2252 102.255 23.572L119.884 5.93613C121.243 4.57637 121.248 2.36624 119.892 1.01058C118.537 -0.345078 116.328 -0.34097 114.969 1.0188L99.7906 16.2022L92.9695 9.38279C92.3124 8.7255 91.4377 8.36399 90.5055 8.36399H90.5014C89.5692 8.36399 88.6986 8.7255 88.0457 9.37458C87.3927 10.0278 87.0313 10.9028 87.0354 11.8353C87.0354 12.7678 87.3968 13.6428 88.0539 14.3001L91.5486 17.7961Z" fill="#942B6A"/>
<path d="M128.319 44.7367L113.141 29.5533L119.962 22.7299C120.619 22.0726 120.981 21.1976 120.981 20.265C120.981 19.3325 120.623 18.4575 119.966 17.8043C119.309 17.1511 118.443 16.7896 117.511 16.7896H117.506C116.574 16.7896 115.7 17.1511 115.043 17.8084L111.556 21.2961L111.531 21.3208C111.141 21.7111 105.766 27.0844 105.766 27.0885C105.141 27.7129 104.784 28.5469 104.755 29.4753C104.755 29.4999 104.755 29.5246 104.755 29.5821C104.764 30.4941 105.117 31.3486 105.749 31.9894L123.404 49.6499C124.085 50.3319 124.981 50.6728 125.872 50.6728C126.763 50.6728 127.65 50.336 128.327 49.6581C129.683 48.3025 129.678 46.0924 128.319 44.7326V44.7367Z" fill="#F26522"/>
<path d="M108.041 41.3188L102.259 35.5347C101.634 34.9102 100.801 34.5528 99.8686 34.5241C99.8439 34.5241 99.8234 34.5241 99.7659 34.5241C98.846 34.5323 97.9878 34.8897 97.3348 35.5429L79.7051 53.1787C78.3459 54.5385 78.3418 56.7486 79.6969 58.1043C80.3745 58.7821 81.2615 59.119 82.1527 59.119C83.0438 59.119 83.9391 58.778 84.6208 58.0961L99.7988 42.9127L106.62 49.7321C107.277 50.3894 108.152 50.7509 109.084 50.7509C109.084 50.7509 109.084 50.7509 109.088 50.7509C110.02 50.7509 110.891 50.3894 111.544 49.7362C112.197 49.083 112.558 48.208 112.558 47.2755C112.558 46.3429 112.197 45.4679 111.54 44.8106L108.045 41.3147L108.041 41.3188Z" fill="#F26522"/>
<path d="M80.0378 36.385C79.3807 37.0423 79.0193 37.9173 79.0193 38.8499C79.0193 39.7824 79.3766 40.6574 80.0296 41.3106C80.6825 41.9638 81.5942 42.3253 82.4853 42.3253C83.3765 42.3253 84.2717 41.9843 84.9534 41.3024L88.4481 37.8064C88.4933 37.7612 94.0208 32.2318 94.2302 32.0223C94.8544 31.3978 95.2117 30.5639 95.2404 29.6314C95.2404 29.6067 95.2404 29.5862 95.2404 29.5287C95.2322 28.6085 94.875 27.7499 94.2302 27.1049L94.222 27.0967L76.5923 9.46084C75.2331 8.10108 73.0237 8.09697 71.6685 9.45263C70.3133 10.8083 70.3174 13.0184 71.6767 14.3782L86.8548 29.5615L80.0337 36.385H80.0378Z" fill="#F26522"/>
</g>
<defs>
<clipPath id="clip0_2_2">
<rect width="200" height="111.871" fill="white"/>
</clipPath>
</defs>
</svg>
